<?xml version="1.0" encoding="UTF-8" standalone="no"?>
<!-- Created with Inkscape (http://www.inkscape.org/) -->

<svg
   width="112.71657mm"
   height="30.427094mm"
   viewBox="0 0 426.01538 115.00004"
   version="1.1"
   id="svg1"
   xml:space="preserve"
   inkscape:version="1.3.2 (091e20e, 2023-11-25, custom)"
   sodipodi:docname="logos juapa.svg"
   xmlns:inkscape="http://www.inkscape.org/namespaces/inkscape"
   xmlns:sodipodi="http://sodipodi.sourceforge.net/DTD/sodipodi-0.dtd"
   xmlns="http://www.w3.org/2000/svg"
   xmlns:svg="http://www.w3.org/2000/svg"><sodipodi:namedview
     id="namedview1"
     pagecolor="#ffffff"
     bordercolor="#999999"
     borderopacity="1"
     inkscape:showpageshadow="2"
     inkscape:pageopacity="0"
     inkscape:pagecheckerboard="0"
     inkscape:deskcolor="#d1d1d1"
     inkscape:document-units="px"
     showguides="true"
     inkscape:zoom="0.088388348"
     inkscape:cx="3795.7492"
     inkscape:cy="-797.61644"
     inkscape:window-width="2560"
     inkscape:window-height="1009"
     inkscape:window-x="-8"
     inkscape:window-y="-8"
     inkscape:window-maximized="1"
     inkscape:current-layer="g152"
     showgrid="true"><inkscape:grid
       id="grid17"
       units="px"
       originx="-2683.0955"
       originy="556.28431"
       spacingx="0.99999999"
       spacingy="1"
       empcolor="#0099e5"
       empopacity="0.30196078"
       color="#0099e5"
       opacity="0.14901961"
       empspacing="15"
       dotted="false"
       gridanglex="30"
       gridanglez="30"
       visible="true" /><inkscape:page
       x="4.690238e-05"
       y="6.6501307e-06"
       width="426.01538"
       height="115.00004"
       id="page2"
       margin="0"
       bleed="0" /></sodipodi:namedview><defs
     id="defs1" /><g
     inkscape:groupmode="layer"
     id="g37"
     inkscape:label="LOGO SELECCIONADO"
     style="display:inline"
     transform="translate(-1158.2901,293.41424)"><g
       id="g39-0-5"
       transform="matrix(0.68827397,0,0,0.68872938,1085.9186,-513.76952)"
       inkscape:label="positivo"
       style="display:inline"><g
         id="g38-5-1"
         transform="matrix(0.88306657,0,0,0.88306657,10.529331,44.476761)"><path
           style="display:inline;fill:#151f21;fill-opacity:1"
           d="m 150.51811,456.90851 c 4.54193,-5.57976 13.91922,-17.60228 15.28644,-19.59856 1.20013,-1.75231 2.77249,-4.72349 3.10376,-5.86498 0.16869,-0.58126 -0.0435,-0.85172 -1.04157,-1.32767 -1.33133,-0.63487 -1.91263,-1.63979 -1.67317,-2.89247 0.0804,-0.42066 1.49608,-2.3475 3.14593,-4.28187 4.46865,-5.23931 6.85131,-8.45837 7.23615,-9.77632 0.24176,-0.82797 0.18814,-2.22917 -0.18058,-4.71903 -0.28844,-1.94777 -0.76863,-5.26763 -1.06708,-7.37747 -0.9979,-7.05439 -2.93759,-11.1338 -7.18789,-15.117 -4.20579,-3.94148 -8.13327,-5.23308 -18.32378,-6.02598 -5.50988,-0.42871 -6.35166,-0.67316 -8.14724,-2.36592 -0.58433,-0.55087 -2.27356,-1.98482 -3.75384,-3.18655 -4.81813,-3.91149 -14.38375,-13.92444 -13.95897,-14.61175 0.12956,-0.20963 0.1042,-0.34335 -0.0564,-0.29714 -0.16056,0.0462 -0.61065,-0.0907 -1.00021,-0.30424 -0.38955,-0.21354 -1.42541,-0.50329 -2.3019,-0.64389 -0.87649,-0.1406 -2.1089,-0.56887 -2.73868,-0.95171 l -1.14505,-0.69607 -2.21927,1.67501 c -1.2206,0.92125 -2.74741,2.16767 -3.39291,2.76981 l -1.17363,1.09481 -1.39387,-1.49138 c -1.74298,-1.86491 -1.83814,-3.01955 -0.3013,-3.65613 0.60092,-0.24891 1.27821,-0.63247 1.50509,-0.85236 0.22688,-0.21989 1.15874,-0.93137 2.07079,-1.58105 1.3654,-0.97263 1.70103,-1.43431 1.90035,-2.61406 0.26158,-1.54826 2.78862,-4.63095 4.15058,-5.06322 0.40103,-0.12729 1.46192,-0.75788 2.35755,-1.40132 1.20947,-0.86892 1.77946,-1.08536 2.21556,-0.8413 0.87627,0.49038 3.16728,-2.08941 4.90051,-5.51823 1.13003,-2.23551 1.68931,-4.06566 2.65143,-8.67641 1.45195,-6.95816 1.91557,-8.29692 3.93969,-11.37623 3.25479,-4.95152 7.9821,-7.39314 14.31416,-7.39314 3.64151,0 6.505,0.80174 9.26597,2.59434 7.53697,4.89352 10.17695,14.54539 6.15134,22.48954 -1.22484,2.41711 -4.30402,5.34452 -7.06069,6.71269 -3.31675,1.64614 -6.87436,2.11609 -11.8396,1.56398 -7.4917,-0.83303 -11.26672,-0.39198 -15.75088,1.84026 l -2.91798,1.45259 0.0189,1.7707 c 0.0304,2.85225 0.33498,3.41683 3.06619,5.68388 4.58914,3.80922 6.39427,5.00836 11.10199,7.37502 3.00253,1.50943 5.53647,3.09028 7.22234,4.5058 l 2.59704,2.18056 3.79974,-1.28476 c 2.97994,-1.00756 4.35156,-1.28475 6.35735,-1.28475 2.01983,0 2.77434,-0.15434 3.58842,-0.73402 0.56696,-0.4037 2.02582,-1.15392 3.24193,-1.66714 3.02149,-1.27515 8.17416,-1.33085 11.49225,-0.12424 l 2.19838,0.79943 1.08614,-1.17332 c 0.59738,-0.64532 1.52046,-1.89045 2.05129,-2.76694 0.83068,-1.37159 0.96241,-1.96369 0.94542,-4.24967 -0.0229,-3.08914 -0.70494,-4.88977 -3.14951,-8.31553 -2.36032,-3.30769 -2.78937,-4.63681 -2.6086,-8.08096 0.17884,-3.40728 1.27843,-5.83459 3.58858,-7.92167 2.41623,-2.18292 4.91232,-3.11124 8.3867,-3.1191 2.8322,-0.006 3.20285,0.0851 6.26867,1.54793 3.64836,1.74076 4.30791,1.77216 8.56277,0.40764 3.60412,-1.15582 4.64806,-0.88485 4.64424,1.20545 -0.006,3.34174 -1.78113,5.66512 -5.31146,6.95234 -1.33742,0.48765 -2.02143,0.91485 -1.86851,1.16698 0.13267,0.21875 0.92561,1.33054 1.76209,2.47064 1.49231,2.03399 1.64396,2.70797 0.60931,2.70797 -0.85868,0 -1.27404,1.77666 -1.15002,4.91907 0.11147,2.82432 0.0733,3.00416 -0.77116,3.63527 -0.55508,0.41484 -1.78418,0.74761 -3.27579,0.8869 -1.31304,0.12261 -2.38736,0.34071 -2.38736,0.48465 0,0.14395 0.65026,0.84919 1.44501,1.5672 2.44817,2.21178 5.35272,3.12699 11.304,3.56185 5.60335,0.40944 8.53884,1.69581 13.28022,5.81955 1.36344,1.18583 3.59451,2.8158 4.95795,3.62215 4.26679,2.52345 5.09963,3.17307 6.10472,4.76179 1.38386,2.1874 4.72411,4.5166 8.08479,5.63762 3.07494,1.02571 6.01317,2.39485 6.95027,3.23863 0.92728,0.83495 5.58002,12.64297 5.15085,13.07214 -0.2374,0.2374 -10.55821,-3.3686 -12.18363,-4.25685 -0.94167,-0.5146 -2.76843,-1.86148 -4.05946,-2.99307 -3.19289,-2.79856 -4.22773,-3.38627 -8.87198,-5.03855 -6.57379,-2.33876 -8.17293,-2.78679 -9.96379,-2.79159 -3.44786,-0.009 -3.77496,0.62854 -5.01383,9.77591 -1.12577,8.31226 -1.61026,11.18972 -3.42164,20.32135 -0.79204,3.99292 -1.55717,8.10004 -1.70028,9.12694 -0.24278,1.74218 -0.20709,1.88042 0.53337,2.06626 0.95709,0.24022 2.16,1.4808 2.33046,2.40345 0.0874,0.47322 1.09391,1.06581 3.41984,2.01351 3.60099,1.46722 6.97408,3.25821 6.97408,3.70297 0,0.69025 -13.47043,8.21375 -20.18972,11.27636 -16.61644,7.57365 -36.05635,13.8472 -51.70052,16.68452 -1.75299,0.31794 -3.47821,0.66258 -3.83382,0.76586 -0.36272,0.10536 0.85199,-1.65317 2.76695,-4.00571 z m -16.57191,-115.09253 3.60958,-0.58697 -1.76137,-1.97621 c -0.96876,-1.08692 -2.02487,-2.57344 -2.34692,-3.30338 -0.32204,-0.72993 -0.64616,-1.26653 -0.72025,-1.19244 -0.0741,0.0741 -0.37,1.14326 -0.65756,2.37593 -0.28756,1.23266 -0.90344,2.92218 -1.36862,3.75448 -0.46518,0.83229 -0.73748,1.51378 -0.60511,1.51441 0.13237,6.3e-4 1.86499,-0.26299 3.85025,-0.58582 z m 17.38715,-0.10946 c 4.16081,-0.78908 7.82231,-3.61239 9.55488,-7.36756 1.72177,-3.73179 1.17216,-8.75904 -1.37863,-12.61003 -1.3449,-2.03042 -4.68087,-4.56558 -7.12285,-5.41297 -2.97005,-1.03064 -6.98406,-0.87012 -9.75513,0.39011 -5.57781,2.53667 -8.90967,9.13946 -7.35151,14.56859 1.46306,5.09779 5.22136,8.88883 10.11602,10.20414 2.33826,0.62835 3.57465,0.67577 5.93722,0.22772 z m -4.15532,-2.23892 c 0.0109,-0.2372 1.94238,-2.10457 4.2922,-4.14973 2.34983,-2.04515 4.45257,-3.87782 4.67276,-4.0726 3.09266,-2.73579 3.76426,-3.12444 3.76426,-2.17839 0,0.55825 -10.91079,10.15197 -12.00676,10.5574 -0.50007,0.18499 -0.7358,0.13387 -0.72246,-0.15668 z m -4.26946,-1.39858 c 0,-0.5234 3.88649,-4.50995 5.84329,-5.99373 0.58433,-0.44308 1.1421,-0.89077 1.23949,-0.99488 0.0974,-0.1041 1.90102,-1.68445 4.00806,-3.51189 2.56905,-2.22814 3.94834,-3.20528 4.18723,-2.96638 0.39682,0.39682 -0.53154,1.31563 -8.39488,8.30856 -5.66317,5.0363 -6.88319,5.9506 -6.88319,5.15832 z m -2.99933,-2.73358 c -0.33659,-0.54462 0.35137,-1.33995 3.7993,-4.39227 1.81207,-1.60416 3.27057,-2.64172 3.50757,-2.49524 0.23606,0.14589 0.30946,0.095 0.17554,-0.12166 -0.2292,-0.37086 7.59324,-7.5281 8.22776,-7.5281 1.03612,0 0.31001,1.1275 -2.04393,3.17383 -1.46486,1.27343 -3.71485,3.2715 -4.99998,4.44016 -6.41656,5.83504 -8.37291,7.39792 -8.66626,6.92328 z m -2.49469,-3.92097 c -0.12371,-0.20016 0.2904,-0.7982 0.92023,-1.32898 1.22741,-1.03437 6.43334,-5.58684 10.51918,-9.19879 2.29812,-2.03157 3.61636,-2.71796 3.61636,-1.88297 0,0.18171 -2.27091,2.37297 -5.04648,4.86945 -7.61958,6.85343 -9.54012,8.30043 -10.00929,7.54129 z m -0.52635,-4.90556 c 0,-0.73581 7.46183,-7.53939 9.07489,-8.27436 2.66421,-1.21389 -0.32028,2.01287 -6.21803,6.72278 -2.31335,1.84744 -2.85686,2.14262 -2.85686,1.55158 z"
           id="path34-7-6"
           sodipodi:nodetypes="sssssssssssssssssscsscssssssssssssssssscsssscssssscsssssscsscssssssssssssssssssscssssssssssssscssssssssssssssssssssssssssssssssssssssssssssss" /><path
           style="display:inline;fill:#42aa14;fill-opacity:1"
           d="m 176.05269,500.74008 c -0.58105,-0.22785 -0.38181,-0.48853 1.41656,-1.85333 5.93966,-4.50766 13.08024,-8.19033 24.93469,-12.85977 15.87883,-6.25463 21.67715,-8.84738 28.23829,-12.62694 8.52738,-4.91222 14.33942,-9.24988 20.55888,-15.3436 l 3.64443,-3.57074 -1.66969,3.54139 c -2.12295,4.50272 -4.16302,7.96173 -7.2423,12.27955 -2.85551,4.00407 -8.02418,9.59837 -8.56135,9.26637 -0.20498,-0.12668 -0.26827,-0.062 -0.14095,0.144 0.27922,0.45179 -2.83664,3.36204 -6.5772,6.14319 -10.4433,7.76469 -23.77864,13.03389 -37.09301,14.65658 -4.54995,0.55452 -16.28206,0.70415 -17.50835,0.2233 z m -21.28046,-5.64775 c -6.8901,-3.34613 -11.09795,-5.84868 -16.54684,-9.86406 0,0 -3.46612,-2.35451 -5.28567,-3.84166 -1.81955,-1.48715 -5.03564,-4.50909 -5.60245,-5.10685 -0.56681,-0.59776 -1.8088,-2.77101 -1.14463,-2.36053 0.30209,0.1867 9.74948,-0.82238 16.18472,-1.7287 22.9262,-3.22887 50.09338,-11.53164 70.47369,-21.538 21.33867,-10.4769 35.52812,-21.78363 45.21515,-36.02928 l 1.67504,-2.4633 0.25817,1.33108 c 0.52117,2.6871 0.28674,14.61507 -0.37068,18.86097 -0.34683,2.23993 -0.74256,4.15228 -0.87941,4.24967 -0.13685,0.0974 -1.19486,1.53165 -2.35113,3.18725 -5.78393,8.28168 -13.70796,15.91197 -22.92108,22.07141 -4.69855,3.14122 -6.29796,4.06137 -12.65793,7.28223 -7.5111,3.80382 -10.75361,5.1543 -24.78974,10.32481 -14.46348,5.32793 -23.41355,9.53911 -31.26412,14.71036 -2.48964,1.63996 -4.8004,2.98099 -5.13502,2.98008 -0.33462,-9.2e-4 -2.52075,-0.93038 -4.85807,-2.06548 z"
           id="path35-2-8"
           sodipodi:nodetypes="ssssscssssssssczzsssscssssssssss" /><path
           d="m 151.60078,407.1479 c -1.38791,0.62286 -2.06904,1.2906 -2.82202,2.76656 -2.12386,4.16312 0.87451,9.15688 5.49801,9.15688 1.85324,0 2.73938,-0.36342 4.20717,-1.72543 2.00189,-1.85762 2.49277,-4.43119 1.33251,-6.98602 -1.32383,-2.91499 -5.36067,-4.49322 -8.21567,-3.21199 z"
           style="display:inline;fill:#42aa14;fill-opacity:1"
           id="path36-1-5" /></g><path
         style="font-style:italic;font-weight:800;font-size:29.3333px;font-family:'Exo 2';-inkscape-font-specification:'Exo 2, Ultra-Bold Italic';white-space:pre;fill:#151f21;fill-opacity:1;stroke-width:4.128;stroke-linecap:round;stroke-linejoin:round"
         d="m 1132.0154,119.48131 c 1.6623,0 3.3538,0.0196 5.0747,0.0587 1.7209,0.0195 3.2462,0.12709 4.576,0.32267 l -0.616,3.87199 h -6.9227 c -0.5867,0 -1.0071,0.0978 -1.2613,0.29334 -0.2542,0.19555 -0.4204,0.54755 -0.4987,1.05599 l -2.0533,14.72532 h -5.5147 l 2.2294,-16.04531 c 0.1955,-1.34933 0.7431,-2.39556 1.6426,-3.13867 0.8996,-0.76267 2.0143,-1.144 3.344,-1.144 z m -5.016,8.41866 h 12.3494 l -0.4694,3.72533 h -12.4373 z m 22.8507,-3.08 c 1.8773,0 3.3831,0.264 4.5173,0.792 1.1538,0.528 1.936,1.36889 2.3467,2.52267 0.4302,1.15377 0.5084,2.68888 0.2346,4.60533 -0.2542,1.83822 -0.704,3.30488 -1.3493,4.39999 -0.6258,1.07555 -1.5254,1.848 -2.6987,2.31733 -1.1733,0.46933 -2.6889,0.704 -4.5466,0.704 -1.8578,0 -3.3636,-0.25422 -4.5173,-0.76267 -1.1538,-0.50844 -1.9556,-1.32977 -2.4054,-2.46399 -0.4302,-1.15378 -0.5084,-2.68889 -0.2346,-4.60533 0.2542,-1.85777 0.6942,-3.32444 1.32,-4.4 0.6453,-1.09511 1.5547,-1.8871 2.728,-2.37599 1.1929,-0.48889 2.728,-0.73334 4.6053,-0.73334 z m -0.088,3.72533 c -0.6453,0 -1.1538,0.10756 -1.5254,0.32267 -0.3715,0.21511 -0.6746,0.62578 -0.9093,1.232 -0.2151,0.60622 -0.4107,1.48622 -0.5867,2.64 -0.1369,1.01689 -0.1857,1.79911 -0.1466,2.34666 0.039,0.528 0.2153,0.88978 0.528,1.08533 0.3129,0.19555 0.7822,0.29333 1.408,0.29333 0.6257,0 1.1146,-0.10755 1.4666,-0.32266 0.3716,-0.23467 0.6649,-0.64533 0.88,-1.232 0.2151,-0.60622 0.4107,-1.46666 0.5867,-2.58133 0.1369,-1.03645 0.1858,-1.81867 0.1467,-2.34666 -0.039,-0.54756 -0.2056,-0.91912 -0.4987,-1.11467 -0.2933,-0.21511 -0.7431,-0.32267 -1.3493,-0.32267 z m 14.8426,-3.31466 0.176,3.19733 0.4694,0.38133 -1.496,10.99999 h -5.368 l 2.0533,-14.57865 z m 7.0987,-0.41067 -1.1147,4.89867 h -1.232 c -0.6062,0 -1.2711,0.088 -1.9946,0.264 -0.704,0.17599 -1.6133,0.43999 -2.728,0.79199 l -0.2054,-3.02133 c 1.0951,-0.97777 2.1707,-1.7111 3.2267,-2.19999 1.0755,-0.48889 2.0924,-0.73334 3.0507,-0.73334 z m 8.712,0 c 1.9165,0 3.3929,0.20533 4.4293,0.616 1.056,0.41067 1.76,1.00711 2.112,1.78934 0.3715,0.76266 0.4693,1.72088 0.2933,2.87466 -0.1173,0.88 -0.4204,1.57422 -0.9093,2.08266 -0.4693,0.48889 -1.1244,0.86045 -1.9653,1.11467 -0.8409,0.23467 -1.9066,0.40089 -3.1973,0.49866 l -7.5974,0.616 0.352,-2.66933 6.0134,-0.616 c 0.4497,-0.0391 0.8213,-0.0978 1.1146,-0.176 0.3129,-0.0978 0.5574,-0.24444 0.7334,-0.44 0.1955,-0.21511 0.3129,-0.52799 0.352,-0.93866 0.059,-0.33245 0.039,-0.58667 -0.059,-0.76267 -0.098,-0.176 -0.2836,-0.29333 -0.5573,-0.352 -0.2543,-0.0782 -0.6356,-0.10755 -1.144,-0.088 -0.4889,0 -0.8996,0.0587 -1.232,0.176 -0.3325,0.11733 -0.616,0.31289 -0.8507,0.58667 -0.2151,0.25422 -0.4009,0.63555 -0.5573,1.144 -0.1369,0.48889 -0.2738,1.13422 -0.4107,1.936 -0.176,1.09511 -0.2249,1.91644 -0.1467,2.46399 0.098,0.54756 0.3423,0.90934 0.7334,1.08534 0.4107,0.17599 0.9778,0.26399 1.7013,0.26399 0.4498,0 1.0169,-0.01 1.7013,-0.0293 0.6845,-0.0391 1.3982,-0.0782 2.1413,-0.11733 0.7627,-0.0587 1.4276,-0.11733 1.9947,-0.176 l 0.3813,3.28533 c -0.6453,0.27377 -1.3493,0.50844 -2.112,0.704 -0.7626,0.176 -1.535,0.29333 -2.3173,0.352 -0.7822,0.0782 -1.5449,0.11733 -2.288,0.11733 -2.0924,0 -3.7057,-0.29333 -4.84,-0.88 -1.1342,-0.60622 -1.8871,-1.48622 -2.2586,-2.64 -0.3716,-1.17333 -0.4694,-2.60088 -0.2934,-4.28266 0.176,-1.52533 0.4791,-2.77688 0.9094,-3.75466 0.4497,-0.99733 1.0266,-1.76 1.7306,-2.288 0.7236,-0.54755 1.5841,-0.92889 2.5814,-1.144 1.0169,-0.23467 2.1706,-0.352 3.4613,-0.352 z m 20.3573,0 c 1.4471,0 2.5031,0.36178 3.168,1.08534 0.6844,0.72355 0.9288,1.75022 0.7333,3.07999 l -1.5253,10.82399 h -5.3094 l 1.32,-9.32799 c 0.059,-0.46933 0.029,-0.77244 -0.088,-0.90933 -0.098,-0.15645 -0.3324,-0.23467 -0.704,-0.23467 -0.5671,0 -1.1439,0.14667 -1.7306,0.44 -0.5867,0.27378 -1.32,0.76267 -2.2,1.46667 l -0.792,-2.40533 c 1.2907,-1.38845 2.5422,-2.40534 3.7546,-3.05067 1.2125,-0.64533 2.3369,-0.968 3.3734,-0.968 z m -4.3707,-5.54399 -0.6453,4.78133 c -0.1369,0.99733 -0.3521,1.95555 -0.6454,2.87466 -0.2737,0.91911 -0.5279,1.65245 -0.7626,2.2 l 0.616,0.29333 -1.4374,10.38399 h -5.3386 l 2.8746,-20.53331 z"
         id="text37-0-6"
         inkscape:label="text5"
         transform="matrix(3.5100802,0,0,3.5100802,-3697.8571,-40.74034)"
         aria-label="ForehApp"
         sodipodi:nodetypes="scccsscccccsscccccsccccsssccccssscccsscccccscccccccccsccccscsccccccccccccsccscccccsccccccsccccccsssccccccscccssccccccccc" /><path
         style="font-style:italic;font-weight:800;font-size:29.3333px;font-family:'Exo 2';-inkscape-font-specification:'Exo 2, Ultra-Bold Italic';white-space:pre;fill:#42aa14;fill-opacity:1;stroke-width:14.4896;stroke-linecap:round;stroke-linejoin:round"
         d="m 583.15605,378.95753 c 1.51004,0 2.84855,0.51481 4.01554,1.54443 1.23555,1.02963 1.95628,2.29951 2.16221,3.80964 l 10.09042,65.68988 h -19.35704 l -5.14823,-49.21596 c -0.13807,-1.30418 -0.24103,-2.57404 -0.30889,-3.80959 v -3.70665 h -2.88283 c -0.27449,1.02963 -0.58337,2.19653 -0.92666,3.50071 -0.34329,1.30421 -0.78942,2.57408 -1.33839,3.80963 l -19.45989,49.42186 h -20.07765 l 28.6233,-66.41064 c 0.54921,-1.51011 1.4073,-2.64269 2.57429,-3.39776 1.23555,-0.8237 2.64262,-1.23555 4.22122,-1.23555 z m 4.32442,40.05233 -1.64728,14.31176 h -37.06644 l 1.75012,-14.31176 z m 59.51236,-21.41616 c 3.91257,0 7.03572,1.02962 9.36946,3.08887 2.40253,1.99061 3.98125,5.04516 4.73615,9.16363 0.8237,4.11849 0.8237,9.40389 0,15.85619 -0.7549,5.35404 -1.85309,9.74709 -3.29456,13.17916 -1.37291,3.36345 -3.08899,5.93751 -5.14824,7.72217 -1.99068,1.78469 -4.32453,3.02024 -7.00155,3.70665 -2.60823,0.75507 -5.49117,1.1326 -8.64884,1.1326 -1.6474,0 -3.56929,-0.10296 -5.76566,-0.30889 -2.12805,-0.13736 -4.35894,-0.37761 -6.69267,-0.72076 -2.26517,-0.34319 -4.39298,-0.78936 -6.38343,-1.3385 -1.99069,-0.61777 -3.67248,-1.33851 -5.04539,-2.16221 l 2.16221,-7.3103 c 2.74582,0 5.25131,0.0343 7.51648,0.10284 h 7.92787 c 2.05925,0 3.74093,-0.17161 5.04504,-0.51482 1.30435,-0.41185 2.33397,-1.09825 3.08887,-2.05922 0.75513,-0.96099 1.33863,-2.33382 1.75048,-4.11849 0.48041,-1.85332 0.92654,-4.18714 1.33839,-7.00145 0.54921,-3.77528 0.82382,-6.65823 0.82382,-8.64884 0,-1.99059 -0.30889,-3.36341 -0.92666,-4.11848 -0.61778,-0.75504 -1.61312,-1.13256 -2.98603,-1.13256 -1.23555,0 -2.67702,0.37752 -4.32442,1.13256 -1.5786,0.68643 -3.1916,1.64742 -4.839,2.88297 -1.57883,1.23553 -2.98602,2.64267 -4.22157,4.22143 l -3.39776,-7.3103 c 0.8237,-1.23555 2.02497,-2.71135 3.6038,-4.4274 1.5786,-1.71603 3.46621,-3.43207 5.66282,-5.1481 2.26517,-1.71603 4.73626,-3.12318 7.41329,-4.22147 2.67702,-1.09825 5.42272,-1.64738 8.2371,-1.64738 z m -20.90147,1.23555 -0.2071,12.56139 1.95652,1.54443 -4.32442,34.28643 -1.1327,1.75037 c 0.0679,1.71603 0.0339,3.43206 -0.10179,5.14809 -0.0679,1.71606 -0.27379,3.56938 -0.61778,5.55997 l -1.54443,9.36956 h -18.73927 l 9.78154,-70.22024 z m 83.29666,-1.23555 c 3.91257,0 7.03572,1.02962 9.36945,3.08887 2.40253,1.99061 3.98125,5.04516 4.73615,9.16363 0.8237,4.11849 0.8237,9.40389 0,15.85619 -0.7549,5.35404 -1.85309,9.74709 -3.29456,13.17916 -1.37291,3.36345 -3.08898,5.93751 -5.14823,7.72217 -1.99045,1.78469 -4.32419,3.02024 -7.00121,3.70665 -2.60845,0.75507 -5.4914,1.1326 -8.64884,1.1326 -1.64739,0 -3.56939,-0.10296 -5.766,-0.30889 -2.12781,-0.13736 -4.3587,-0.37761 -6.69267,-0.72076 -2.26517,-0.34319 -4.39299,-0.78936 -6.38344,-1.3385 -1.99068,-0.61777 -3.67248,-1.33851 -5.04539,-2.16221 l 2.16221,-7.3103 c 2.74582,0 5.25132,0.0343 7.51649,0.10284 h 7.92787 c 2.05925,0 3.74104,-0.17161 5.04539,-0.51482 1.30411,-0.41185 2.33373,-1.09825 3.08887,-2.05922 0.7549,-0.96099 1.33827,-2.33382 1.75012,-4.11849 0.48065,-1.85332 0.9269,-4.18714 1.33875,-7.00145 0.54897,-3.77528 0.82346,-6.65823 0.82346,-8.64884 0,-1.99059 -0.30889,-3.36341 -0.92666,-4.11848 -0.61777,-0.75504 -1.613,-1.13256 -2.98567,-1.13256 -1.23555,0 -2.67703,0.37752 -4.32442,1.13256 -1.57883,0.68643 -3.19195,1.64742 -4.83935,2.88297 -1.57883,1.23553 -2.98602,2.64267 -4.22157,4.22143 l -3.39776,-7.3103 c 0.8237,-1.23555 2.02497,-2.71135 3.6038,-4.4274 1.57883,-1.71603 3.46644,-3.43207 5.66281,-5.1481 2.26517,-1.71603 4.73627,-3.12318 7.41329,-4.22147 2.67702,-1.09825 5.42272,-1.64738 8.23711,-1.64738 z m -20.90148,1.23555 -0.20709,12.56139 1.95616,1.54443 -4.32441,34.28643 -1.13271,1.75037 c 0.0679,1.71603 0.0339,3.43206 -0.10179,5.14809 -0.0679,1.71606 -0.27378,3.56938 -0.61777,5.55997 l -1.54444,9.36956 h -18.73926 l 9.78154,-70.22024 z"
         id="path11"
         inkscape:label="text5"
         aria-label="ForehApp"
         sodipodi:nodetypes="sccccccccscccccsscccccsccccccsccccccscsccsssccccscssscccccccccccsccccccsccccccscsccsssccccscsssccccccccccc" /></g></g></svg>
