<svg width="94" height="115" viewBox="0 0 94 115" fill="none" xmlns="http://www.w3.org/2000/svg">
<path d="M26.3592 88.1661C29.1198 84.7725 34.8192 77.4605 35.6502 76.2464C36.3796 75.1806 37.3353 73.3736 37.5366 72.6793C37.6392 72.3258 37.5102 72.1613 36.9036 71.8719C36.0944 71.4857 35.7411 70.8745 35.8866 70.1127C35.9355 69.8568 36.7959 68.6849 37.7987 67.5085C40.5147 64.3219 41.9629 62.3641 42.1968 61.5626C42.3437 61.059 42.3111 60.2068 42.087 58.6925C41.9117 57.5078 41.6199 55.4887 41.4385 54.2055C40.8319 49.9151 39.653 47.434 37.0697 45.0115C34.5135 42.6143 32.1264 41.8287 25.9327 41.3465C22.5838 41.0858 22.0722 40.9371 20.9809 39.9076C20.6257 39.5725 19.599 38.7004 18.6993 37.9695C15.7709 35.5906 9.95698 29.5008 10.2152 29.0828C10.2939 28.9553 10.2785 28.8739 10.1809 28.902C10.0833 28.9301 9.80973 28.8469 9.57296 28.717C9.33619 28.5871 8.70661 28.4109 8.17388 28.3254C7.64116 28.2399 6.89211 27.9794 6.50933 27.7466L5.81338 27.3232L4.46453 28.3419C3.72266 28.9022 2.79468 29.6603 2.40235 30.0265L1.68902 30.6924L0.841838 29.7854C-0.217531 28.6511 -0.275369 27.9489 0.65871 27.5617C1.02394 27.4103 1.43559 27.177 1.57349 27.0433C1.71139 26.9096 2.27777 26.4769 2.8321 26.0817C3.66198 25.4902 3.86598 25.2094 3.98712 24.4919C4.14611 23.5502 5.68202 21.6753 6.50981 21.4124C6.75355 21.335 7.39835 20.9515 7.94271 20.5602C8.67781 20.0317 9.02425 19.9001 9.2893 20.0485C9.82189 20.3467 11.2144 18.7777 12.2678 16.6923C12.9546 15.3327 13.2945 14.2196 13.8793 11.4154C14.7618 7.18349 15.0436 6.36927 16.2738 4.49645C18.2521 1.48497 21.1253 0 24.9738 0C27.1871 0 28.9275 0.487607 30.6056 1.57786C35.1865 4.55406 36.7911 10.4243 34.3444 15.2559C33.5999 16.7259 31.7284 18.5064 30.0529 19.3385C28.037 20.3397 25.8748 20.6255 22.8569 20.2897C18.3035 19.783 16.0091 20.0513 13.2837 21.4089L11.5101 22.2924L11.5216 23.3693C11.5401 25.104 11.7252 25.4474 13.3852 26.8262C16.1745 29.1429 17.2716 29.8723 20.1329 31.3116C21.9579 32.2297 23.498 33.1911 24.5226 34.052L26.1011 35.3782L28.4105 34.5969C30.2217 33.9841 31.0554 33.8155 32.2745 33.8155C33.5021 33.8155 33.9607 33.7216 34.4555 33.3691C34.8001 33.1235 35.6868 32.6672 36.4259 32.3551C38.2623 31.5796 41.3941 31.5457 43.4108 32.2795L44.747 32.7658L45.4071 32.0522C45.7702 31.6597 46.3312 30.9024 46.6539 30.3693C47.1587 29.5351 47.2388 29.175 47.2285 27.7847C47.2146 25.9059 46.8 24.8108 45.3142 22.7272C43.8796 20.7155 43.6189 19.9072 43.7287 17.8124C43.8374 15.7402 44.5058 14.2639 45.9099 12.9945C47.3784 11.6669 48.8955 11.1023 51.0072 11.0975C52.7286 11.0939 52.9539 11.1493 54.8173 12.039C57.0347 13.0977 57.4356 13.1168 60.0216 12.2869C62.2122 11.5839 62.8467 11.7487 62.8444 13.02C62.8407 15.0524 61.7618 16.4655 59.6161 17.2484C58.8032 17.545 58.3875 17.8048 58.4805 17.9581C58.5611 18.0912 59.043 18.7674 59.5514 19.4608C60.4585 20.6978 60.5506 21.1077 59.9218 21.1077C59.3999 21.1077 59.1474 22.1883 59.2228 24.0995C59.2906 25.8172 59.2673 25.9266 58.7541 26.3105C58.4167 26.5628 57.6697 26.7651 56.7631 26.8499C55.965 26.9244 55.3121 27.0571 55.3121 27.1446C55.3121 27.2322 55.7073 27.6611 56.1903 28.0978C57.6783 29.443 59.4437 29.9996 63.0608 30.2641C66.4665 30.5131 68.2507 31.2954 71.1324 33.8035C71.9611 34.5247 73.3171 35.516 74.1458 36.0065C76.7392 37.5412 77.2453 37.9363 77.8562 38.9025C78.6973 40.2329 80.7275 41.6495 82.7701 42.3313C84.639 42.9551 86.4248 43.7878 86.9944 44.301C87.558 44.8088 90.3859 51.9904 90.1251 52.2514C89.9808 52.3958 83.7079 50.2027 82.7199 49.6624C82.1476 49.3495 81.0373 48.5303 80.2526 47.8421C78.312 46.14 77.6831 45.7826 74.8603 44.7777C70.8648 43.3552 69.8929 43.0827 68.8044 43.0798C66.7088 43.0744 66.51 43.4621 65.7571 49.0255C65.0728 54.0809 64.7783 55.831 63.6774 61.3848C63.196 63.8133 62.731 66.3112 62.644 66.9357C62.4964 67.9953 62.5181 68.0794 62.9682 68.1924C63.5499 68.3385 64.281 69.093 64.3846 69.6542C64.4377 69.942 65.0495 70.3024 66.4632 70.8788C68.6518 71.7711 70.702 72.8604 70.702 73.1309C70.702 73.5507 62.5147 78.1265 58.4308 79.9891C48.3315 84.5954 36.516 88.4109 27.0076 90.1366C25.9422 90.3299 24.8936 90.5395 24.6775 90.6023C24.457 90.6664 25.1953 89.5969 26.3592 88.1661ZM16.287 18.1675L18.4808 17.8105L17.4103 16.6086C16.8215 15.9476 16.1796 15.0435 15.9838 14.5995C15.7881 14.1556 15.5911 13.8292 15.5461 13.8743C15.501 13.9194 15.3212 14.5696 15.1464 15.3193C14.9716 16.069 14.5973 17.0966 14.3146 17.6028C14.0319 18.109 13.8663 18.5234 13.9468 18.5238C14.0273 18.5242 15.0803 18.3639 16.287 18.1675ZM26.8547 18.101C29.3836 17.621 31.6091 15.9039 32.6621 13.62C33.7086 11.3504 33.3745 8.29286 31.8242 5.95072C31.0068 4.71583 28.9792 3.17394 27.495 2.65857C25.6898 2.03174 23.2501 2.12938 21.5659 2.89584C18.1757 4.43863 16.1507 8.4544 17.0977 11.7564C17.9869 14.8568 20.2712 17.1625 23.2461 17.9625C24.6673 18.3446 25.4188 18.3735 26.8547 18.101ZM24.3291 16.7393C24.3358 16.595 25.5097 15.4593 26.9379 14.2154C28.3661 12.9716 29.6441 11.857 29.778 11.7385C31.6577 10.0746 32.0659 9.83823 32.0659 10.4136C32.0659 10.7531 25.4344 16.588 24.7683 16.8345C24.4643 16.9471 24.321 16.916 24.3291 16.7393ZM21.7342 15.8887C21.7342 15.5703 24.0964 13.1457 25.2857 12.2433C25.6409 11.9738 25.9799 11.7015 26.0391 11.6382C26.0983 11.5749 27.1945 10.6137 28.4751 9.50231C30.0366 8.14716 30.8749 7.55288 31.0201 7.69818C31.2613 7.93952 30.697 8.49834 25.9178 12.7514C22.4757 15.8144 21.7342 16.3705 21.7342 15.8887ZM19.9112 14.2261C19.7067 13.8949 20.1248 13.4112 22.2204 11.5548C23.3218 10.5791 24.2082 9.94808 24.3523 10.0372C24.4958 10.1259 24.5404 10.0949 24.459 9.96317C24.3197 9.73761 29.0741 5.38462 29.4598 5.38462C30.0895 5.38462 29.6482 6.07035 28.2175 7.31492C27.3271 8.08941 25.9596 9.30464 25.1785 10.0154C21.2786 13.5642 20.0895 14.5148 19.9112 14.2261ZM18.395 11.8414C18.3198 11.7197 18.5715 11.3559 18.9543 11.0331C19.7003 10.404 22.8644 7.63523 25.3478 5.43846C26.7445 4.20287 27.5458 3.78542 27.5458 4.29325C27.5458 4.40377 26.1655 5.73648 24.4786 7.25482C19.8474 11.423 18.6801 12.3031 18.395 11.8414ZM18.0751 8.85786C18.0751 8.41035 22.6103 4.27246 23.5907 3.82545C25.21 3.08717 23.3961 5.04967 19.8114 7.9142C18.4054 9.03781 18.0751 9.21733 18.0751 8.85786Z" fill="#151F21"/>
<path d="M41.8789 114.824C41.5258 114.686 41.6469 114.527 42.7399 113.697C46.35 110.955 50.69 108.716 57.895 105.876C67.546 102.072 71.0702 100.495 75.058 98.1961C80.2409 95.2086 83.7734 92.5704 87.5535 88.8642L89.7686 86.6925L88.7538 88.8464C87.4634 91.5849 86.2235 93.6887 84.3519 96.3147C82.6164 98.75 79.4749 102.152 79.1484 101.95C79.0238 101.873 78.9854 101.913 79.0628 102.038C79.2325 102.313 77.3387 104.083 75.0652 105.774C68.7178 110.497 60.6127 113.701 52.5204 114.688C49.7549 115.026 42.6243 115.117 41.8789 114.824ZM28.9448 111.389C24.7571 109.354 22.1996 107.832 18.8878 105.39C18.8878 105.39 16.7811 103.958 15.6752 103.054C14.5693 102.149 12.6146 100.311 12.2701 99.9476C11.9256 99.584 11.1707 98.2622 11.5744 98.5119C11.758 98.6254 17.5001 98.0117 21.4113 97.4605C35.3457 95.4967 51.8577 90.447 64.2447 84.3612C77.2141 77.9892 85.8384 71.1126 91.7261 62.4484L92.7441 60.9503L92.9011 61.7598C93.2178 63.3941 93.0753 70.6486 92.6758 73.2309C92.465 74.5933 92.2244 75.7564 92.1413 75.8156C92.0581 75.8748 91.415 76.7471 90.7123 77.754C87.1968 82.7909 82.3807 87.4316 76.781 91.1777C73.9253 93.0882 72.9532 93.6478 69.0876 95.6067C64.5224 97.9202 62.5517 98.7416 54.0206 101.886C45.2298 105.127 39.7901 107.688 35.0186 110.833C33.5054 111.83 32.1009 112.646 31.8975 112.645C31.6942 112.645 30.3654 112.08 28.9448 111.389Z" fill="#42AA14"/>
<path d="M27.0173 57.902C26.1737 58.2808 25.7597 58.6869 25.3021 59.5846C24.0112 62.1166 25.8336 65.1538 28.6437 65.1538C29.7701 65.1538 30.3087 64.9327 31.2008 64.1044C32.4175 62.9746 32.7159 61.4094 32.0107 59.8555C31.2061 58.0826 28.7525 57.1228 27.0173 57.902Z" fill="#42AA14"/>
</svg>
